<svg width="325" height="325" viewBox="0 0 325 325" fill="none" xmlns="http://www.w3.org/2000/svg">
<g clip-path="url(#clip0_61_14)">
<rect width="325" height="325" rx="12" fill="#A8FF3E"/>
<path d="M23.1808 46.1541L101.908 46.1537C117.258 46.1392 137.691 45.43 152.552 47.1856C161.852 48.1984 170.963 50.5246 179.612 54.0945C221.147 71.626 234.992 115.542 219.075 156.804C211.733 175.833 194.755 189.56 176.005 197.055C182.537 206.437 189.027 216.883 195.275 226.549L228.486 277.794C210.422 278.07 191.93 277.876 173.834 277.881C168.134 270.05 160.987 258.278 155.558 249.916C145.628 234.733 135.778 219.497 126.009 204.21L72.2107 204.274L72.291 235.086C80.2972 235.11 88.3034 235.094 96.3092 235.038C99.0969 235.028 106.277 234.858 108.798 235.241C117.53 247.473 128.047 264.767 136.532 277.797C99.0117 278.283 60.6933 277.876 23.1121 277.862C22.8758 263.46 23.0863 248.47 23.0868 234.031L23.16 162.131L101.509 162.163L123.692 162.18C131.217 162.191 137.315 162.481 144.711 161.14C163.408 157.554 175.165 144.372 175.194 125.135C175.585 105.791 162.189 91.5245 143.211 89.2411C134.053 88.1393 124.036 88.5939 114.695 88.5989L72.1416 88.6326L72.1928 143.569C56.0843 143.82 39.298 143.571 23.1421 143.57L23.1808 46.1541Z" fill="black"/>
<path d="M253.796 107.312L302.811 107.298L302.869 277.859L271.46 277.854L249.399 277.885C240.151 263.696 231.007 249.438 221.967 235.114L253.784 235.105L253.796 107.312Z" fill="black"/>
<path d="M253.763 46.1582C269.962 45.9656 286.591 46.1524 302.819 46.1615C302.72 60.3124 302.724 74.4637 302.828 88.6146L253.775 88.6217L253.763 46.1582Z" fill="black"/>
</g>
<defs>
<clipPath id="clip0_61_14">
<rect width="325" height="325" fill="white"/>
</clipPath>
</defs>
</svg>
